<svg xmlns="http://www.w3.org/2000/svg" xmlns:xlink="http://www.w3.org/1999/xlink" width="43" height="17" viewBox="0 0 43 17">
    <defs>
        <path id="dxsh83z1ka" d="M0 0.109L31.811 0.109 31.811 14 0 14z"/>
        <path id="objzhcwqwc" d="M0.133 0.367L30.505 0.367 30.505 12.476 0.133 12.476z"/>
    </defs>
    <g fill="none" fill-rule="evenodd">
        <g transform="translate(0 -1) translate(0 3.714)">
            <mask id="3hvuuqgdlb" fill="#fff">
                <use xlink:href="#dxsh83z1ka"/>
            </mask>
            <path fill="#F18808" d="M27.706 6.97c-.063.031-.129.061-.196.092-.046.02-.09.042-.137.062-.09.04-.182.078-.275.116l-.113.047c-.132.052-.268.104-.409.154-.148.054-.3.105-.455.155l-.16.05c-.105.032-.21.065-.317.096-.064.019-.13.036-.196.055l-.299.082c-.077.02-.157.039-.235.06l-.284.068c-.081.02-.164.037-.246.056-.095.022-.19.043-.287.063-.106.023-.215.044-.322.066l-.044.008.035-1.764-.162-.049.017-.84c.039.01.077.017.115.026l.338.083.167.041c.167.043.333.087.496.133.194.055.38.11.562.167l.042.012c.179.056.352.113.52.171l.16.057c.113.04.225.081.333.122.06.023.118.046.175.07.096.037.19.075.282.115l.187.08c.086.038.17.077.252.115l.17.082.21.108.076.04M4.438 6.352c.088-.039.18-.077.274-.115l.114-.047c.131-.052.267-.104.408-.154.155-.056.315-.11.477-.162l.165-.05c.11-.035.223-.069.337-.102l.198-.055c.107-.03.214-.059.323-.087.074-.02.15-.038.225-.056.107-.027.215-.053.324-.078l.234-.053.317-.067.286-.058.317-.059.099-.017-.037 1.817.188.057-.02.969-.224-.05-.32-.071c-.12-.028-.237-.057-.353-.086l-.173-.042c-.177-.045-.35-.092-.522-.14-.195-.054-.382-.11-.565-.167l-.04-.011c-.18-.056-.351-.114-.52-.172l-.16-.057c-.113-.04-.225-.081-.332-.122l-.175-.069c-.096-.038-.19-.077-.282-.115l-.188-.08-.251-.116-.171-.082c-.072-.035-.14-.072-.21-.108l-.076-.04.195-.092.138-.063m26.944 3.96c.028-.042.055-.084.079-.125.015-.025.028-.05.042-.076.021-.039.04-.079.059-.118l.034-.078c.015-.04.03-.08.043-.121l.023-.075c.012-.044.02-.088.029-.132.003-.021.009-.042.012-.064.01-.065.015-.13.017-.196l.09-4.546c-.001.065-.007.13-.017.196l-.012.063c-.009.044-.017.088-.03.133-.006.024-.015.049-.022.074-.013.04-.028.08-.044.122l-.033.076c-.018.04-.038.08-.06.12l-.04.076c-.025.041-.052.082-.08.124l-.046.067c-.036.051-.076.101-.118.152-.011.012-.02.026-.031.039-.054.063-.113.126-.176.188l-.04.039c-.05.047-.102.095-.156.142l-.07.06c-.05.041-.101.083-.155.123l-.076.059c-.066.048-.133.095-.204.143l-.046.032-.057.035c-.097.063-.197.125-.303.186l-.124.07-.122.065.049-2.425c.001-.07-.005-.142-.015-.213l-.01-.064c-.01-.051-.022-.103-.037-.154l-.021-.068c-.02-.058-.044-.116-.071-.174l-.017-.04c-.036-.07-.076-.14-.122-.21-.012-.02-.027-.038-.04-.056-.037-.053-.075-.105-.118-.157l-.057-.068c-.046-.052-.095-.104-.145-.156l-.054-.055-.02-.02c-.019-.017-.042-.034-.06-.051-.072-.065-.146-.13-.227-.194-.037-.03-.076-.058-.115-.088-.078-.058-.16-.116-.246-.174-.026-.017-.048-.036-.075-.053l-.062-.037c-.057-.037-.12-.074-.18-.11-.06-.036-.121-.072-.184-.107-.065-.036-.133-.072-.202-.108-.044-.023-.085-.047-.131-.07-.025-.013-.053-.025-.078-.037-.055-.028-.113-.055-.171-.083l-.25-.114-.19-.082-.118-.051-.162-.063-.175-.07-.332-.121c-.054-.02-.106-.039-.16-.057l-.046-.017c-.154-.052-.312-.104-.475-.155l-.038-.011c-.148-.046-.298-.091-.453-.136l-.113-.031c-.163-.046-.329-.09-.496-.134l-.168-.041-.3-.074-.036-.008c-.17-.04-.34-.078-.512-.115l-.063-.014c-.194-.042-.39-.081-.588-.12l-.028-.005-.11-.02c-.173-.032-.348-.064-.523-.094l-.22-.036-.472-.074c-.046-.007-.09-.015-.136-.021l-.063-.009c-.286-.04-.574-.079-.865-.114l-.168-.02c-.298-.034-.6-.066-.902-.094L19.16.289l-.082-.007c-.218-.02-.436-.037-.655-.053l-.218-.016c-.21-.015-.419-.028-.63-.039l-.138-.008c-.251-.013-.503-.023-.756-.032L16.49.128c-.199-.005-.397-.01-.596-.013l-.21-.004-.13-.001c-.157-.002-.315 0-.472 0h-.202c-.263 0-.525.005-.786.012-.06 0-.118.003-.177.005-.203.006-.404.013-.606.021l-.273.014c-.17.008-.338.018-.506.028-.046.003-.092.004-.137.008-.041.002-.081.006-.122.01-.28.018-.558.04-.834.065l-.08.006c-.296.028-.59.06-.88.093l-.1.011-.165.021-.411.055-.289.04c-.136.02-.27.042-.404.063L8.93.59l-.107.02c-.1.016-.197.034-.295.051l-.317.06-.287.057-.191.04c-.042.008-.084.018-.125.028l-.233.052c-.11.025-.218.051-.324.078-.077.019-.151.037-.226.057l-.126.031-.197.055-.198.055c-.114.033-.226.068-.337.102l-.165.05-.039.012c-.15.05-.295.099-.438.15-.14.05-.276.102-.408.154l-.018.007-.097.04-.273.115-.138.063-.222.105-.055.026c-.025.012-.045.024-.069.037-.085.043-.167.086-.246.13-.036.02-.073.04-.108.061-.093.054-.182.108-.265.162l-.04.025-.009.006-.04.028c-.062.042-.122.083-.179.125l-.066.05c-.047.037-.092.073-.135.11l-.061.05c-.048.042-.093.084-.137.126l-.035.033-.009.009c-.051.052-.1.103-.144.156l-.027.033c-.037.044-.071.088-.103.133l-.04.058c-.025.037-.049.073-.07.11-.013.02-.024.043-.036.065-.018.035-.036.07-.051.104l-.03.067c-.014.036-.026.071-.038.107l-.02.064c-.01.039-.018.078-.025.116l-.011.055c-.008.057-.013.114-.015.171l-.022 1.128-.025 1.303c-.01-.006-.02-.01-.028-.016l-.208-.126c-.107-.068-.212-.137-.31-.206l-.016-.012c-.102-.073-.196-.145-.287-.219l-.058-.047C1.061 5.92.978 5.844.9 5.77L.84 5.708c-.06-.06-.115-.12-.167-.18l-.065-.077c-.05-.06-.094-.12-.136-.18l-.046-.064c-.052-.08-.1-.16-.14-.241l-.02-.046c-.03-.066-.057-.132-.08-.199l-.024-.078C.143 4.585.13 4.526.12 4.467c-.004-.024-.01-.05-.013-.074-.01-.08-.017-.162-.015-.243L0 8.696c-.001.081.005.163.017.244.003.025.007.05.012.074.011.059.025.117.041.176l.025.078c.023.067.05.133.081.199.007.015.012.03.02.045.04.08.087.161.14.242l.045.064c.041.06.086.12.135.18l.066.078c.052.059.108.118.166.178l.062.063c.008.007.014.015.023.022.07.068.147.135.227.2.019.017.039.033.06.049.089.073.183.146.284.218l.018.013c.076.055.156.109.239.163l.07.042c.067.042.138.084.208.126.069.042.138.082.21.123.074.041.152.082.23.123.052.027.099.054.152.08.028.015.06.03.088.043.064.032.13.063.196.094.094.045.19.088.288.132.07.031.142.062.215.092l.138.06.184.072.2.08.38.138.186.067.052.018c.176.06.357.12.543.178l.047.014c.168.052.34.104.516.154l.129.036c.197.056.396.108.598.16l.197.049c.104.025.205.052.31.076l.096.022.366.083c.106.023.21.047.318.069l.38.077.246.05c.022.004.045.007.067.012.222.041.446.082.67.12l.101.018c.26.043.523.084.787.123l.047.008.107.014c.3.042.604.083.91.12l.203.024c.337.04.675.075 1.015.107l.075.008.18.015c.207.018.416.035.625.051.097.007.194.015.29.02.226.016.451.03.677.043l.213.012c.294.015.588.028.883.038l.204.005c.23.007.46.013.69.016.097.002.194.003.292.003.21.002.42.004.63.003l.274-.001c.28-.002.559-.006.837-.013l.045-.001c.293-.007.584-.018.874-.03l.262-.013c.206-.01.413-.021.619-.034l.155-.01.107-.008c.343-.023.684-.049 1.021-.08l.14-.014c.31-.028.615-.06.918-.097l.123-.013.077-.01c.222-.027.44-.056.658-.086l.12-.016c.255-.037.507-.076.756-.117l.048-.007.238-.043c.131-.023.26-.045.39-.07.098-.018.195-.038.292-.057.124-.024.248-.049.369-.075l.082-.016.245-.055.283-.064c.11-.026.217-.053.325-.08.09-.023.182-.045.27-.069l.06-.015c.095-.024.186-.051.279-.077l.229-.064c.12-.035.24-.073.358-.11.062-.019.126-.037.187-.057l.02-.006c.17-.055.338-.112.501-.171.161-.058.317-.117.468-.177l.02-.007.11-.046c.107-.044.213-.088.315-.132l.156-.072c.087-.04.173-.08.255-.12l.064-.03.078-.042c.098-.05.192-.1.282-.15.042-.023.084-.046.124-.07.106-.06.207-.122.303-.185.014-.01.032-.019.046-.028l.01-.007c.017-.01.031-.022.047-.032.07-.048.139-.096.204-.144l.076-.058c.053-.04.105-.082.155-.124l.07-.06c.055-.047.106-.094.155-.142l.041-.038.01-.01c.06-.06.114-.119.166-.179l.031-.039c.042-.05.082-.1.118-.151l.046-.068" mask="url(#3hvuuqgdlb)"/>
        </g>
        <path fill="#D97601" d="M8.462 11.018l.188.054-.028 1.342-.255-.052-.251-.053c-.1-.02-.201-.042-.3-.064-.12-.027-.238-.056-.357-.084l-.175-.041c-.178-.044-.354-.089-.528-.136-.197-.054-.387-.108-.586-.167l-.026-.008c-.181-.054-.357-.11-.528-.167l-.163-.056c-.114-.039-.228-.079-.336-.119l-.18-.068c-.098-.037-.193-.075-.287-.113l-.19-.08c-.089-.036-.174-.074-.257-.112l-.176-.08-.215-.107-.447-.232.378-.176c.064-.03.131-.061.2-.09l.14-.063c.09-.038.185-.076.28-.114l.118-.046c.133-.05.272-.101.415-.15.158-.055.32-.108.485-.159l.168-.05c.112-.033.225-.067.341-.098l.202-.055.326-.084.229-.056c.109-.026.217-.05.328-.075l.237-.052.32-.065.289-.056.295-.053.384-.066-.038 1.85zm16.479 5.934l.08-.016.526-.115c.092-.02.182-.042.273-.064l.117-.028c.067-.016.134-.032.202-.05l.06-.013.177-.049.325-.087c.113-.03.223-.064.332-.097l.229-.068c.169-.053.334-.108.496-.163.084-.029.162-.059.242-.088-.23-1.556-.464-3.115-.669-4.675l-.074.032c-.09.039-.186.077-.282.114l-.115.046c-.135.051-.273.102-.417.152-.15.052-.305.102-.462.151l-.213.063c-.09.027-.18.054-.272.08l-.226.06c-.092.025-.182.05-.275.073l-.3.072c-.076.019-.15.037-.226.054l-.274.06-.265.056-.326.063-.306.057.037-1.802-.162-.048.025-1.221.375.082.341.08.169.04c.17.042.337.086.502.13.196.053.384.107.59.168l.022.007c.182.054.357.11.527.167l.164.056c.114.04.227.079.337.12l.179.067.286.112.192.08.256.113.108.05c-.174-1.387-.323-2.775-.424-4.164-.008-.004-.016-.008-.025-.01-.06-.027-.122-.053-.185-.078l-.117-.05-.334-.125c-.106-.039-.216-.078-.328-.116l-.204-.07c-.152-.05-.31-.1-.486-.153l-.022-.006c-.147-.044-.296-.087-.45-.13l-.112-.03c-.162-.044-.327-.086-.493-.127l-.235-.057-.242-.056-.024-.006c-.169-.038-.339-.074-.51-.11l-.062-.014c-.193-.04-.389-.077-.585-.114l-.139-.024c-.172-.03-.345-.061-.52-.09l-.219-.035c-.156-.025-.313-.048-.471-.07l-.135-.021-.063-.009c-.285-.038-.573-.075-.863-.109l-.167-.019c-.298-.033-.598-.064-.918-.092l-.082-.007c-.217-.019-.434-.036-.654-.052l-.217-.015c-.209-.013-.418-.026-.627-.037l-.138-.008c-.252-.012-.503-.022-.755-.03l-.191-.006c-.198-.005-.397-.01-.595-.013l-.339-.005H14.643c-.263.001-.525.005-.786.012l-.175.005c-.203.006-.404.012-.606.02l-.272.013c-.168.009-.337.017-.504.027l-.137.007-.122.01c-.28.018-.556.039-.83.063l-.08.006c-.297.027-.589.056-.877.09l-.102.01-.163.02-.41.052-.288.04c-.135.018-.269.038-.403.06l-.178.026-.107.018-.293.05-.316.058c-.095.017-.475.092-.475.092l-.356.077-.322.074-.348.085-.393.105-.333.097-.202.06c-.148.046-.292.093-.434.142-.138.048-.272.097-.42.153l-.094.038c-.092.036-.183.073-.27.109l-.135.06c-.074.032-.148.065-.217.098l-.054.024-.067.035c-.084.04-.164.082-.24.123l-.106.057c-.09.05-.175.1-.257.152l-.036.02-.05.034c-.06.038-.116.076-.17.115L3 7.063c.057 2.933.198 5.86.599 8.762l.05.019c.122.045.248.088.376.133l.235.08c.175.058.355.114.558.175l.029.009c.166.05.336.099.511.147l.13.035c.195.053.393.104.594.153l.505.12.095.021.343.074.022.005.316.066c.12.025.24.047.378.074l.245.048.068.011c.221.04.444.079.67.116l.1.017c.26.042.52.081.782.118l.155.02c.3.043.603.08.909.117l.202.023c.336.038.674.072 1.012.103l.077.007.178.014c.208.018.416.034.625.05l.29.02c.224.015.45.029.675.04l.212.012c.294.015.588.026.883.036l.203.006.688.015.293.003c.21.002.42.003.63.002h.272c.28-.003.558-.006.835-.013l.046-.001c.293-.007.583-.017.873-.03l.26-.012c.207-.01.413-.02.62-.033l.154-.008.107-.008c.342-.022.683-.047 1.019-.077l.14-.013c.308-.028.613-.06.916-.094l.121-.012.078-.01c.22-.026.44-.054.656-.083l.119-.015c.255-.035.506-.073.754-.112l.34-.057.333-.058.344-.065.316-.061z" transform="translate(0 -1)"/>
        <path fill="#D46800" d="M20.592 17.519c.305-.028.606-.06.906-.094l.12-.012.077-.01c.218-.026.434-.053.648-.083l.118-.015c.252-.035.5-.073.745-.112l.336-.057.33-.058.128-.024c-.215-1.523-.43-3.046-.654-4.568l-.144.029-.302.057.037-1.802-.16-.048.025-1.221.097.022c-.2-1.291-.411-2.581-.638-3.868l-.046-.259-.196-.039-.136-.024c-.17-.03-.342-.061-.515-.09l-.216-.035c-.155-.024-.31-.048-.466-.07l-.133-.021-.063-.009c-.281-.038-.566-.075-.853-.109l-.165-.018c-.294-.034-.591-.065-.907-.093l-.081-.007c-.215-.019-.43-.036-.647-.052l-.215-.015c-.206-.013-.413-.026-.62-.037l-.137-.008c-.248-.012-.497-.022-.746-.03l-.189-.006c-.196-.005-.392-.01-.588-.013l-.335-.005h-.665c-.26.001-.518.005-.777.012l-.174.005c-.2.006-.398.012-.598.02l-.268.014c-.167.008-.334.016-.5.026l-.134.008-.121.009c-.276.018-.55.039-.82.063l-.08.006c-.294.027-.582.057-.868.09l-.1.01-.161.02-.406.052-.284.04c-.134.018-.266.038-.399.06l-.176.026-.106.018-.29.05c-.104.02-.21.038-.312.058-.094.017-.47.092-.47.092l-.352.077-.318.074-.344.085L6 5.707c.062 1.288.17 2.576.325 3.855l.111-.028.325-.075.234-.051c.104-.023.21-.044.316-.066l.286-.056.292-.053.38-.066-.038 1.85.185.055-.027 1.343-.252-.053-.248-.053c-.1-.02-.199-.042-.297-.064-.118-.027-.235-.055-.352-.084l-.173-.041-.378-.098c.3 1.691.697 3.36 1.21 4.986.196.036.392.07.59.103l.1.017c.256.042.514.081.773.118l.154.02c.297.043.596.08.898.117l.2.023c.332.038.665.072 1.001.103l.076.007.176.014c.205.018.41.034.617.05l.287.02c.222.015.445.029.668.04l.21.012c.29.015.581.026.872.036l.201.006.68.015.29.003c.208.002.415.003.622.002h.27c.277-.003.552-.006.826-.013l.045-.001c.29-.007.577-.017.863-.03l.258-.012c.204-.01.408-.02.612-.033l.153-.008.105-.008c.339-.022.675-.047 1.008-.077l.138-.013z" transform="translate(0 -1)"/>
        <path fill="#FDE47A" d="M22.58 9.843c1.55-.682 1.725-1.51-.343-2.102-3.905-1.118-8.056.54-10.141-.058-.753-.215-.666-.544.082-.817.658-.24 1.194-.336 1.802-.352.1.02.188.034.223.044l.945.27 1.138-.37-2.472-.832c-.88.197-1.88.426-2.715.674l-1.552-.482-.99.328 1.554.482c-1.718.663-1.984 1.446-.022 2.008 4.081 1.168 8.058-.528 10.372.133.856.246.596.581-.092.833-1.081.396-1.994.479-2.138.485-.356-.063-.716-.138-.77-.163-.19-.044-.757-.206-.786-.215l-1.126.355 2.548.872c.086-.008 1.738-.179 3.516-.75l1.285.397 1.005-.332-1.323-.408M5.255 5.14c4.958-1.815 13.786-1.91 19.72-.211 5.935 1.698 6.725 4.546 1.769 6.36-4.957 1.815-13.784 1.91-19.718.21C1.09 9.802.299 6.955 5.256 5.14" transform="translate(0 -1)"/>
        <path fill="#FDD73B" d="M18.649 7.784c1.197-.04 2.443.03 3.664.355 2.048.545 1.875 1.307.34 1.934l1.309.375-.995.306-1.273-.365c-1.76.525-3.396.682-3.482.69l-2.523-.802 1.115-.327c.03.008.59.157.779.198.053.023.41.091.762.15.142-.006 1.047-.082 2.118-.446.681-.232.938-.54.09-.766-2.048-.545-5.413.643-8.991.134-2.838.41-5.71.601-8.562.457.789.711 2.213 1.379 4.249 1.92 5.877 1.563 14.617 1.475 19.526-.194 4.744-1.612 4.172-4.112-1.175-5.689-2.29.772-4.61 1.475-6.951 2.07" transform="translate(0 -1)"/>
        <path fill="#FDF0B2" d="M26.72 11.697c4.945-1.76 4.157-4.523-1.764-6.17-5.922-1.648-14.73-1.556-19.676.205-4.946 1.76-4.155 4.522 1.766 6.169 5.922 1.647 14.728 1.556 19.674-.204m-23-6.4c5.666-2.016 15.754-2.12 22.537-.233 6.782 1.887 7.687 5.051 2.022 7.066-5.664 2.017-15.753 2.122-22.536.234-6.782-1.886-7.687-5.05-2.022-7.066" transform="translate(0 -1)"/>
        <path fill="#FBDC54" d="M25.807 5.934c2.025.765 3.27 1.717 3.554 2.74.171.616-.01 1.24-.526 1.807-.554.607-1.481 1.15-2.757 1.616-4.904 1.789-13.666 1.884-19.532.211-2.736-.78-4.482-1.844-4.963-3.015C1.055 9.27.527 9.235 0 9.196c.502 1.182 2.436 2.325 5.377 3.163 6.64 1.894 16.553 1.79 22.095-.232 1.391-.507 2.392-1.088 2.975-1.729.483-.53.65-1.077.498-1.626-.309-1.113-1.906-2.205-4.433-3.058-.235.074-.47.149-.705.22" transform="translate(0 -1)"/>
        <path fill="#FDF1A7" d="M9 6.203l.967-.309 1.518.455c.815-.234 1.793-.45 2.653-.635l2.417.783-1.113.35-.923-.256c-.035-.009-.12-.023-.218-.042-.595.017-1.119.105-1.762.332-.73.258-.816.567-.08.77 2.039.562 6.096-.998 9.913.054 2.021.557 1.852 1.338.335 1.98l1.293.384-.982.313-1.256-.374c-1.738.537-3.353.698-3.437.706l-2.49-.821 1.1-.334c.029.008.583.16.769.202.052.024.404.094.752.154.14-.006 1.033-.084 2.09-.457.673-.237.927-.553.09-.784-2.261-.623-6.15.974-10.139-.126-1.918-.529-1.658-1.267.022-1.89L9 6.202z" transform="translate(0 -1)"/>
        <path fill="#FDDF62" d="M15.487 7.956c-.822.358-1.649.697-2.487.972 1.153.006 2.264-.12 3.301-.237 1.474-.167 2.748-.312 3.753-.03.399.112.61.256.666.454.022.076.036.228-.112.387-.118.127-.33.246-.628.354-1.175.421-2.132.474-2.141.474l-.023.001-.023-.004c-.288-.051-.642-.118-.769-.16-.147-.035-.476-.124-.704-.188l-.41.126 1.813.61c.309-.034 1.766-.21 3.33-.702l.063-.02 1.248.379.275-.09-1.194-.36.529-.229c.415-.178.722-.368.89-.549.168-.182.137-.289.127-.325-.033-.117-.229-.425-1.325-.732-2.107-.591-4.264-.356-6.18-.13" transform="translate(0 -1)"/>
        <path fill="#BD5D00" d="M21.643 10.714c-1.703.47-3.284.611-3.367.62l-1.688-.499-.588.16 2.44.72c.083-.008 1.665-.149 3.367-.619l1.23.328.963-.275-.778-.206-.348.1-1.231-.329zM8 6.714l.386.703.977.297c.188-.093.4-.185.637-.275l-2-.725z" transform="translate(0 -1)"/>
        <path fill="#BD5D00" d="M5.428 6.597c4.964-1.81 13.805-1.904 19.748-.21 2.655.756 4.28 1.742 4.824 2.761-.251-1.18-1.94-2.353-4.996-3.223-5.943-1.693-14.783-1.599-19.747.21-2.745 1.001-3.726 2.317-3.052 3.58-.237-1.117.812-2.24 3.223-3.118" transform="translate(0 -1)"/>
        <path fill="#BD5D00" d="M10.354 9.422c4.044.809 7.988-.367 10.28.092.102.02.187.042.259.064.21-.132.134-.272-.428-.384-2.293-.459-6.236.716-10.28-.093-.586-.117-.967-.248-1.173-.387-.088.256.32.503 1.342.708M23.869 9.714c-.042.28-.35.566-.869.826l.498.174c.484-.326.64-.676.37-1M14.692 6.909c-.036-.008-.125-.02-.229-.035-.621.013-1.17.087-1.844.274-.667.185-.82.403-.337.566.101-.07.274-.14.511-.206.675-.188 1.224-.261 1.846-.274.104.015.192.026.229.034l.966.21L17 7.19l-.338-.476-1.003.405-.967-.21z" transform="translate(0 -1)"/>
        <path fill="#F18808" d="M38.483 12.267c-.07.015-.141.03-.214.043l-.148.03c-.096.017-.195.032-.296.047l-.121.019c-.14.02-.285.038-.435.055-.157.017-.317.032-.48.044l-.168.01c-.11.008-.219.016-.332.021l-.204.007c-.102.004-.205.008-.31.01-.08.003-.162.003-.244.003l-.293.002-.253-.003c-.098-.001-.196-.002-.294-.005l-.33-.012-.044-.001.447-1.695-.146-.084.213-.807.106.052c.105.052.207.104.31.157.051.026.103.052.153.08.154.08.305.16.453.242.176.096.345.193.51.29l.038.022c.162.095.316.19.467.285.049.03.095.062.143.092.1.065.2.13.295.194l.156.107c.084.06.167.118.247.177l.164.12c.075.057.147.113.218.17l.148.119c.062.05.12.1.178.151l.066.058M15.928 6.3c.095-.017.194-.033.294-.048l.122-.02c.141-.02.285-.038.435-.054.165-.018.333-.033.503-.045.057-.005.116-.008.173-.012l.352-.02.207-.007c.11-.004.222-.008.335-.01l.233-.002h.334l.24.003.325.009c.097.002.194.005.293.01.107.004.215.01.323.016l.1.005-.46 1.747.169.097-.246.931-.208-.1c-.1-.047-.198-.095-.296-.143-.11-.054-.216-.109-.324-.164l-.159-.08c-.16-.085-.32-.17-.476-.256-.177-.097-.347-.194-.512-.291l-.036-.021c-.161-.095-.316-.19-.467-.285-.049-.03-.095-.062-.143-.093-.101-.065-.2-.13-.296-.194l-.155-.107-.247-.176c-.056-.04-.111-.081-.164-.121-.075-.057-.148-.113-.218-.17l-.148-.117-.18-.153-.064-.057.211-.044c.05-.01.099-.02.15-.028m25.358 10.04c.036-.035.072-.068.106-.103l.059-.063c.029-.034.058-.067.085-.102l.05-.066c.026-.036.049-.071.07-.108.014-.022.029-.043.04-.066.023-.04.042-.08.06-.121.009-.02.02-.039.027-.059.025-.06.046-.122.063-.185L43 11.1c-.017.063-.039.124-.063.185-.008.02-.018.039-.027.058-.018.042-.037.082-.06.122-.012.022-.026.044-.04.066-.021.036-.045.072-.07.108l-.05.066c-.027.035-.056.068-.086.101-.02.021-.038.043-.059.064-.033.035-.069.068-.106.101l-.06.055c-.048.041-.099.08-.151.119l-.04.03c-.068.049-.14.096-.216.142l-.048.028c-.06.034-.12.068-.185.102l-.083.04c-.058.03-.118.057-.18.084l-.088.039c-.075.031-.152.062-.232.091-.017.007-.034.014-.053.02l-.063.022c-.109.038-.222.074-.34.109l-.136.038-.134.035.615-2.33v.001c.018-.068.029-.138.036-.209l.004-.065c.003-.051.003-.103 0-.156 0-.024-.002-.047-.004-.07-.005-.061-.015-.123-.029-.184-.002-.015-.003-.029-.007-.043-.017-.076-.041-.153-.07-.231-.007-.021-.017-.042-.024-.064-.024-.059-.05-.118-.08-.179l-.04-.078c-.031-.061-.066-.122-.105-.184l-.04-.065-.013-.024c-.015-.02-.033-.043-.047-.064-.055-.08-.113-.159-.176-.24l-.091-.11c-.063-.075-.129-.15-.2-.225-.022-.023-.039-.046-.061-.069-.015-.017-.035-.033-.05-.05l-.152-.148c-.05-.049-.1-.097-.154-.145-.055-.05-.113-.1-.171-.15-.039-.034-.072-.067-.112-.1l-.067-.053-.147-.119c-.071-.056-.143-.112-.218-.168l-.165-.122-.105-.078-.142-.098-.154-.107c-.096-.064-.196-.13-.296-.194-.048-.03-.094-.062-.144-.092l-.04-.027c-.138-.086-.28-.172-.427-.259l-.034-.02c-.133-.078-.27-.156-.41-.235l-.103-.057c-.149-.082-.3-.162-.453-.243l-.154-.079c-.091-.046-.182-.094-.276-.14-.01-.006-.022-.01-.033-.016-.155-.078-.313-.154-.472-.23l-.058-.028c-.18-.084-.362-.168-.545-.25l-.027-.012c-.034-.016-.069-.03-.103-.044-.161-.072-.324-.143-.488-.212l-.205-.085c-.147-.061-.295-.121-.444-.18l-.127-.053-.06-.022c-.27-.106-.542-.21-.817-.31l-.16-.058c-.283-.102-.568-.203-.857-.3l-.017-.005c-.026-.01-.053-.018-.08-.026-.206-.069-.415-.137-.625-.203l-.209-.065c-.201-.063-.403-.124-.605-.183l-.133-.04c-.243-.07-.486-.139-.73-.205l-.186-.05c-.193-.051-.385-.101-.578-.15l-.204-.052-.126-.032v.001c-.154-.039-.307-.074-.461-.11l-.196-.047c-.257-.059-.514-.116-.77-.17l-.175-.034c-.199-.042-.397-.082-.596-.12l-.27-.05c-.166-.031-.333-.061-.5-.09l-.135-.024-.121-.019c-.277-.046-.554-.09-.829-.13l-.079-.011c-.296-.042-.59-.079-.88-.113-.034-.004-.068-.01-.1-.013-.057-.007-.112-.011-.167-.017-.138-.015-.277-.03-.414-.043l-.29-.027c-.138-.013-.275-.023-.41-.033l-.182-.015-.109-.006-.3-.018-.323-.016-.293-.01-.196-.007-.13-.001-.239-.003h-.334c-.078 0-.156 0-.234.002l-.13.002c-.069.001-.136.005-.204.007l-.208.008c-.118.006-.234.012-.35.02l-.175.011-.04.003c-.157.012-.311.026-.462.043-.15.016-.294.034-.435.054l-.019.003-.103.017c-.1.015-.2.03-.294.048-.051.008-.1.018-.15.028l-.24.05-.061.012-.075.02c-.093.022-.184.045-.271.07l-.12.033c-.103.03-.201.062-.296.095-.015.006-.031.01-.045.014l-.01.005-.046.017c-.07.026-.138.053-.203.08l-.077.034c-.054.023-.107.048-.157.073l-.072.036c-.056.029-.11.058-.162.089l-.042.024-.011.006c-.063.038-.121.077-.178.117-.011.01-.022.018-.034.026-.045.035-.09.069-.132.104l-.052.048c-.033.03-.064.059-.094.09-.018.017-.034.036-.05.054-.027.03-.051.059-.075.089l-.044.058c-.022.03-.042.063-.061.094l-.036.058c-.02.034-.035.07-.052.106l-.023.05c-.022.054-.04.107-.054.162l-.287 1.083-.33 1.251-.023-.022c-.06-.056-.118-.112-.174-.17-.088-.09-.174-.18-.254-.269l-.013-.016c-.082-.093-.157-.185-.228-.276l-.046-.06c-.07-.092-.133-.183-.191-.273l-.046-.075c-.043-.071-.083-.142-.12-.211l-.046-.09c-.033-.069-.063-.137-.09-.205l-.029-.072c-.033-.09-.06-.178-.08-.266l-.009-.048c-.014-.071-.025-.142-.032-.211l-.005-.08c-.003-.061-.003-.121 0-.18l.005-.075c.008-.08.021-.16.042-.238l-1.154 4.367c-.02.078-.034.157-.042.239l-.004.074c-.003.06-.004.119-.001.18l.005.08c.007.07.018.14.033.211.003.016.005.033.009.049.02.087.047.175.08.265.007.024.019.048.028.072.027.068.057.136.09.205.015.03.03.06.047.09.036.07.076.14.12.21l.045.076.016.027c.054.081.113.163.175.246l.046.06c.071.091.146.183.228.277l.014.016c.062.07.127.14.195.212l.058.057.174.17c.058.055.115.11.177.166.063.058.129.115.195.173.043.037.083.075.129.113l.076.061.169.136c.082.064.164.128.25.193l.188.14c.04.03.078.059.12.088.052.038.11.076.163.112.059.041.117.083.178.124.11.073.222.147.337.221l.166.107.046.03c.158.099.32.198.489.296.013.009.028.017.042.025.152.09.307.178.467.268l.118.065c.178.098.361.195.546.292l.18.092c.095.05.189.098.285.146l.087.043.339.164c.098.047.194.094.293.14.116.055.235.108.353.162l.228.105.064.027c.206.092.415.182.625.271l.094.04c.244.102.49.202.74.3l.044.019.1.038c.283.111.57.22.86.326l.193.07c.319.116.64.229.964.338l.072.025.171.056c.199.065.398.13.599.193l.278.088c.216.067.433.132.65.197l.205.06c.283.083.568.163.853.24l.197.052c.223.06.446.118.669.175l.285.071c.205.05.41.1.614.147l.267.063c.274.062.547.123.82.18l.045.01c.287.06.573.118.86.173l.257.047c.205.038.409.075.612.11.051.009.102.02.154.028l.106.016c.34.057.68.11 1.015.159l.14.019c.308.042.614.082.918.118.041.004.083.011.123.016l.078.007c.222.026.443.048.662.07.04.003.08.008.12.01.258.025.513.045.765.063.017 0 .033.002.05.003.081.006.161.01.242.014.132.009.264.017.395.023.1.006.2.008.3.012l.377.014.084.003.252.003.29.003c.114 0 .225 0 .337-.002.093 0 .188-.001.28-.003h.062l.29-.011c.078-.003.159-.005.238-.01.126-.006.25-.014.375-.022l.195-.012.02-.002c.181-.014.357-.03.53-.049.172-.019.337-.04.498-.063.007 0 .015-.001.022-.003.04-.005.077-.012.118-.018.114-.018.228-.036.337-.055.059-.01.114-.022.17-.033.094-.019.187-.037.277-.058l.069-.013.087-.023c.106-.025.21-.052.31-.08l.137-.038c.118-.034.23-.071.339-.109l.051-.017.012-.004.053-.02c.08-.03.158-.06.232-.092l.089-.038.18-.084.082-.041c.065-.034.126-.067.185-.102l.049-.028.012-.007c.072-.044.14-.088.203-.134.015-.01.026-.02.04-.031.052-.039.103-.078.15-.118.022-.018.04-.037.062-.055" transform="translate(0 -1)"/>
        <path fill="#D97601" d="M19.938 7.716l.17.1-.354 1.373-.238-.114-.233-.114c-.093-.046-.186-.091-.278-.138-.11-.056-.22-.112-.329-.17l-.161-.084c-.163-.086-.325-.174-.484-.263-.18-.102-.352-.203-.534-.311l-.023-.013c-.164-.099-.322-.198-.476-.297l-.145-.097c-.103-.067-.205-.134-.302-.201-.045-.03-.159-.111-.159-.111l-.253-.185c-.057-.042-.112-.084-.167-.127-.077-.058-.152-.117-.225-.176l-.151-.124c-.06-.05-.115-.1-.185-.16l-.381-.345.413-.091c.07-.016.143-.031.217-.046l.154-.03c.097-.018.199-.035.302-.05l.125-.02c.144-.021.292-.04.445-.057.168-.018.339-.034.513-.047l.176-.012c.119-.008.238-.015.359-.021l.21-.008.342-.01.237-.002h.34l.244.003.329.008.298.011.301.015.392.023-.49 1.891zm14.69 9.988l.084.003c.051.001.46.007.542.007.095 0 .19 0 .283-.002h.121l.212-.004h.06c.063-.001.125-.004.186-.007l.34-.013c.118-.005.233-.014.349-.021l.24-.016c.179-.015.355-.031.527-.05.089-.01.172-.022.258-.033.154-1.652.307-3.308.488-4.958l-.08.016c-.1.017-.201.034-.305.05l-.124.02c-.144.02-.292.04-.445.056-.16.019-.324.033-.49.047l-.224.014c-.095.007-.189.013-.285.018l-.238.009c-.094.003-.19.007-.286.009-.058.002-.313.003-.313.003l-.234.002-.282-.003-.274-.006c-.11-.002-.222-.007-.335-.012l-.313-.013.477-1.842-.147-.087.322-1.248.348.173c.106.053.21.108.315.163l.155.08c.156.084.31.168.46.253.18.1.351.2.536.311l.021.012c.165.1.323.199.476.297l.145.096c.104.068.205.136.302.202l.159.112c.086.061.171.122.252.183l.17.128c.076.06.15.117.223.176l.093.076c.168-1.465.362-2.925.603-4.375l-.022-.017c-.053-.041-.107-.082-.163-.123l-.103-.078-.295-.208c-.095-.065-.193-.131-.294-.197l-.182-.12c-.137-.087-.279-.175-.439-.272l-.02-.011c-.133-.08-.268-.16-.409-.239l-.102-.058c-.149-.083-.299-.166-.452-.247l-.217-.114c-.07-.036-.14-.074-.222-.115l-.023-.012c-.155-.078-.313-.156-.472-.233l-.058-.03c-.179-.085-.362-.17-.546-.255l-.129-.057c-.16-.073-.324-.145-.488-.215l-.206-.088c-.147-.063-.294-.124-.444-.184l-.127-.053-.06-.023c-.27-.108-.542-.214-.818-.316l-.159-.06c-.283-.104-.57-.206-.876-.311l-.079-.027c-.209-.07-.417-.14-.628-.207l-.209-.067c-.2-.064-.403-.126-.605-.187l-.134-.04c-.242-.072-.487-.142-.732-.21l-.186-.05c-.193-.053-.385-.105-.578-.155l-.33-.086-.347-.084-.313-.074c-.258-.06-.515-.119-.773-.175l-.173-.035c-.2-.042-.398-.083-.597-.122l-.27-.051c-.168-.032-.335-.063-.501-.092l-.136-.025-.121-.02c-.278-.046-.555-.09-.829-.131l-.08-.013c-.297-.042-.59-.08-.881-.115l-.102-.013-.165-.017c-.14-.016-.276-.03-.414-.044-.098-.01-.195-.02-.292-.028-.137-.012-.272-.023-.409-.033l-.181-.015-.11-.007-.299-.018-.323-.016-.488-.017-.368-.005h-.333l-.361.004-.411.015c-.119.006-.234.013-.35.021l-.213.014c-.155.012-.308.026-.459.044-.147.016-.29.034-.449.057l-.102.017c-.099.015-.196.03-.29.048l-.148.03c-.08.015-.16.031-.236.049l-.058.012-.076.02c-.09.022-.179.045-.265.07l-.117.033c-.1.03-.196.061-.289.095l-.04.013-.056.022c-.068.026-.134.051-.196.078l-.017.008c-.661 3.025-1.24 6.064-1.555 9.138l.043.03c.11.075.222.15.337.226l.21.139c.157.1.32.2.505.311l.025.015c.151.091.306.181.466.273l.117.066c.179.1.36.2.545.298 0 0 .397.208.465.242l.088.044c.105.053.212.105.318.157l.02.01.293.143c.112.054.225.106.353.165l.228.107.065.029c.206.093.415.185.626.276l.094.042c.244.104.49.206.738.306l.147.058c.284.114.571.224.861.333l.193.072c.32.118.642.233.967.345l.072.026.172.056c.2.068.399.134.6.199l.278.09c.217.068.434.135.653.2l.204.062c.284.085.57.166.855.246l.199.053c.222.062.446.121.67.18l.286.072c.205.051.41.102.615.15l.269.064c.273.064.548.126.82.185l.045.01c.289.062.576.12.862.176l.259.049c.205.039.41.076.614.112l.153.028.107.017c.341.059.68.113 1.017.162l.14.02c.309.044.616.084.92.12l.123.016.078.009c.223.025.443.049.663.07l.12.012c.258.024.513.045.766.063l.347.022.34.02.353.014c.108.004.216.009.324.011z" transform="translate(0 -1)"/>
        <path fill="#D46800" d="M30.454 17.376c.307.045.612.084.915.12l.122.018.078.008c.22.025.44.048.659.07l.119.012c.257.024.51.045.762.063l.344.022.34.02.131.005c.16-1.617.316-3.236.466-4.854l-.148-.006-.312-.013.475-1.845-.147-.088.32-1.25.093.046c.116-1.377.221-2.754.311-4.132L35 5.295l-.184-.087-.128-.058c-.16-.072-.322-.144-.486-.215l-.204-.088c-.146-.063-.293-.124-.441-.185l-.127-.053-.059-.023c-.268-.108-.54-.214-.814-.317l-.158-.059c-.282-.105-.567-.207-.871-.312l-.079-.027c-.207-.07-.415-.14-.624-.208l-.208-.066c-.2-.064-.4-.127-.602-.188l-.133-.04c-.24-.072-.484-.142-.728-.21l-.184-.051c-.192-.053-.384-.104-.576-.155l-.328-.085c-.115-.03-.23-.057-.345-.085l-.31-.075c-.257-.06-.513-.118-.77-.174l-.171-.036c-.199-.042-.396-.083-.594-.122l-.269-.051c-.166-.032-.332-.063-.498-.092l-.134-.025-.122-.02c-.276-.046-.55-.091-.823-.132l-.08-.012c-.295-.042-.586-.08-.876-.115l-.101-.014-.165-.018c-.138-.015-.274-.03-.41-.043l-.291-.028c-.137-.013-.271-.024-.407-.033l-.18-.016-.109-.006c-.082-.006-.298-.018-.298-.018l-.321-.016-.486-.017-.365-.005h-.331l-.36.004-.298.011c-.251 1.34-.46 2.69-.617 4.044l.116-.002h.339c.08 0 .16.002.242.004.108.001.218.005.327.008.099.004.197.006.297.011l.3.015.389.023-.487 1.895.17.1-.353 1.374-.236-.113-.232-.114c-.092-.046-.185-.092-.276-.139-.11-.055-.219-.112-.327-.17l-.16-.084c-.118-.063-.233-.127-.348-.19-.117 1.81-.13 3.622-.02 5.418.184.084.368.166.556.248l.093.041c.242.104.487.207.734.307l.146.058c.282.113.568.225.856.334l.192.072c.318.119.638.234.961.346l.072.026.171.056c.197.068.396.134.596.199l.277.09c.216.068.432.135.649.2l.203.063c.283.084.567.167.85.246l.198.054c.221.06.444.12.667.178l.284.074c.204.051.408.102.612.15l.266.065c.273.064.545.125.816.184l.045.01c.287.062.573.12.857.177l.257.049c.204.039.408.077.611.113l.152.028.106.017c.34.058.677.113 1.011.162l.14.02z" transform="translate(0 -1)"/>
        <path fill="#FDE47A" d="M33.485 10.28c1.652-.287 2.008-1.031.146-2.07-3.518-1.964-7.903-1.355-9.78-2.403-.678-.378-.52-.67.264-.755.69-.076 1.23-.042 1.82.083.093.042.174.076.206.094l.85.475 1.184-.088-2.199-1.36c-.894-.017-1.912-.032-2.774.01l-1.39-.817-1.03.082 1.392.817c-1.81.23-2.245.91-.478 1.897 3.675 2.051 7.902 1.365 9.985 2.527.772.432.445.69-.276.77-1.135.124-2.036-.01-2.177-.036-.328-.144-.66-.297-.705-.333-.174-.087-.685-.371-.71-.386l-1.17.076 2.263 1.416c.086.011 1.72.232 3.566.103l1.15.674 1.047-.083-1.184-.692M17.823 1.814c5.2-.573 13.746 1.38 19.09 4.364 5.345 2.984 5.462 5.865.263 6.437-5.2.572-13.743-1.382-19.088-4.365-5.346-2.983-5.464-5.864-.265-6.436" transform="translate(0 -1)"/>
        <path fill="#FDD73B" d="M29.383 6.322c1.152.226 2.323.568 3.409 1.15 1.822.98 1.473 1.68-.143 1.951l1.158.653-1.023.077-1.126-.635c-1.805.122-3.403-.086-3.487-.097l-2.213-1.333 1.142-.071c.026.014.525.282.695.363.046.035.37.179.69.313.138.026 1.02.151 2.129.034.706-.075 1.026-.318.271-.723-1.822-.979-5.32-.568-8.61-1.85-2.805-.226-5.59-.672-8.275-1.44.58.864 1.777 1.825 3.588 2.798 5.228 2.808 13.586 4.647 18.672 4.109 4.914-.52 4.972-3.071.253-5.776-2.37.245-4.753.416-7.13.477" transform="translate(0 -1)"/>
        <g transform="translate(0 -1) translate(12 .714)">
            <mask id="wdm8vprkcd" fill="#fff">
                <use xlink:href="#objzhcwqwc"/>
            </mask>
            <path fill="#FDF0B2" d="M24.822 11.611c5.106-.55 4.992-3.318-.258-6.185C19.315 2.559 10.922.68 5.816 1.23c-5.106.55-4.99 3.319.26 6.185 5.249 2.867 13.64 4.745 18.746 4.195M4.433.476c5.848-.63 15.463 1.522 21.475 4.805 6.012 3.283 6.145 6.455.297 7.085-5.848.63-15.463-1.521-21.474-4.804-6.013-3.284-6.146-6.456-.298-7.086" mask="url(#wdm8vprkcd)"/>
        </g>
        <path fill="#FBDC54" d="M37.68 6.506c1.783 1.163 2.77 2.323 2.81 3.333.025.608-.293 1.145-.92 1.552-.674.436-1.693.73-3.032.874-5.148.55-13.636-1.334-18.922-4.2-2.466-1.337-3.91-2.714-4.109-3.904-.504-.142-1.006-.291-1.507-.447.216 1.206 1.824 2.698 4.474 4.134 5.985 3.246 15.587 5.38 21.403 4.758 1.46-.155 2.56-.468 3.27-.929.588-.38.874-.849.852-1.391-.045-1.098-1.34-2.467-3.587-3.824-.243.015-.488.031-.731.044" transform="translate(0 -1)"/>
        <path fill="#FDF1A7" d="M20.207 2.8l1.007-.086 1.359.86c.844-.045 1.839-.03 2.714-.01l2.151 1.43-1.157.091-.833-.499c-.031-.019-.11-.054-.2-.099-.578-.13-1.106-.167-1.782-.087-.766.09-.922.397-.258.794 1.837 1.102 6.126.462 9.567 2.526 1.823 1.094 1.474 1.877-.143 2.18l1.159.728-1.024.086-1.126-.709c-1.805.136-3.404-.096-3.487-.108l-2.214-1.49 1.143-.08c.026.017.525.316.695.407.046.038.369.199.69.35.138.028 1.02.168 2.13.037.705-.084 1.025-.355.27-.808-2.037-1.222-6.173-.5-9.768-2.658-1.73-1.037-1.304-1.753.468-1.995l-1.361-.86z" transform="translate(0 -1)"/>
        <path fill="#FDDF62" d="M26.715 6.714c-.906.16-1.813.298-2.715.37 1.149.278 2.289.418 3.352.546 1.512.183 2.818.34 3.754.855.37.204.548.396.556.604.003.08-.02.233-.204.355-.15.098-.388.165-.712.2-1.275.139-2.242-.035-2.251-.037l-.024-.005-.022-.009c-.276-.118-.613-.267-.73-.34-.138-.068-.445-.234-.657-.35l-.44.028 1.664 1.026c.317.04 1.814.21 3.493.095l.068-.004 1.155.666.295-.023-1.105-.636.583-.1c.457-.078.81-.193 1.019-.331.212-.14.207-.253.206-.29-.005-.124-.127-.473-1.147-1.034-1.962-1.08-4.172-1.355-6.138-1.586" transform="translate(0 -1)"/>
        <path fill="#BD5D00" d="M31.75 9.683c-1.84.116-3.47-.082-3.555-.092l-1.56-.877-.635.037 2.255 1.268c.086.01 1.714.208 3.554.092l1.148.603L34 10.64l-.725-.38-.378.027-1.147-.604zM21 2.714l.119.6.496.4c.115-.036.243-.067.385-.092l-1-.908z" transform="translate(0 -1)"/>
        <path fill="#BD5D00" d="M17.881 2.313c5.2-.593 13.75 1.432 19.095 4.524 2.39 1.382 3.73 2.742 4.024 3.877.027-1.223-1.336-2.783-4.084-4.372-5.347-3.093-13.895-5.118-19.095-4.525-2.876.328-4.122 1.39-3.76 2.794.026-1.156 1.293-2.01 3.82-2.298" transform="translate(0 -1)"/>
        <path fill="#BD5D00" d="M22.072 6.009c3.52 2.074 7.568 1.38 9.562 2.555.089.053.162.103.221.15.237-.134.21-.345-.279-.633-1.994-1.175-6.042-.482-9.561-2.556-.51-.3-.824-.571-.973-.81-.162.332.14.77 1.03 1.294M33.934 9.714c-.089.3-.418.523-.934.652l.415.348c.496-.213.702-.556.52-1M25.823 4.9c-.033-.015-.116-.044-.213-.08-.614-.107-1.174-.137-1.892-.072-.71.065-.925.262-.502.526.12-.054.311-.094.565-.117.717-.065 1.277-.035 1.891.071.097.036.18.065.213.08l.885.406L28 5.64l-.187-.562-1.105.228-.885-.406z" transform="translate(0 -1)"/>
    </g>
</svg>
